<?xml version="1.0" standalone="no"?>
<!DOCTYPE svg PUBLIC "-//W3C//DTD SVG 20010904//EN"
 "http://www.w3.org/TR/2001/REC-SVG-20010904/DTD/svg10.dtd">
<svg version="1.0" xmlns="http://www.w3.org/2000/svg"
 width="104.000000pt" height="104.000000pt" viewBox="0 0 104.000000 104.000000"
 preserveAspectRatio="xMidYMid meet">
<metadata>
Created by potrace 1.14, written by Peter Selinger 2001-2017
</metadata>
<g transform="translate(0.000000,104.000000) scale(0.100000,-0.100000)"
fill="#000000" stroke="none">
<path d="M368 942 c-54 -33 -75 -123 -41 -172 9 -14 45 -52 80 -84 64 -61 75
-82 48 -92 -10 -4 -44 21 -100 75 -84 81 -98 88 -160 81 -86 -9 -131 -103 -85
-178 l21 -34 -21 -32 c-55 -90 18 -197 124 -183 41 5 50 12 146 104 l65 62 21
-20 22 -21 -30 -42 c-38 -55 -45 -110 -15 -131 12 -8 32 -15 45 -15 22 0 22 1
8 22 -9 12 -16 28 -16 35 0 16 42 83 52 83 4 0 17 -19 29 -43 29 -55 30 -138
2 -175 -28 -39 -110 -81 -146 -76 -43 5 -20 -15 24 -22 43 -7 108 10 143 37
38 30 56 72 60 137 4 69 -8 117 -41 160 -22 30 -23 33 -8 49 15 15 21 11 83
-49 83 -80 109 -98 145 -98 79 0 143 64 132 133 -3 21 -12 48 -20 61 -13 20
-13 26 5 62 43 82 -4 167 -95 175 -53 4 -67 -4 -149 -88 -73 -73 -87 -84 -101
-73 -8 7 -15 16 -15 21 0 5 31 40 69 77 79 77 91 97 91 147 0 51 -25 94 -65
111 -46 19 -74 18 -113 -6 -32 -20 -32 -20 -69 0 -46 24 -89 25 -125 2z m130
-82 l29 -21 38 25 c62 42 105 28 105 -34 0 -23 -124 -160 -144 -160 -7 0 -40
28 -74 63 -65 65 -80 102 -60 141 13 24 64 17 106 -14z m-167 -256 l67 -67
-66 -64 c-77 -76 -103 -89 -140 -70 -40 18 -36 63 10 113 19 21 19 22 -6 49
-14 15 -26 31 -27 34 0 3 -2 16 -5 28 -6 34 23 56 65 49 26 -4 52 -23 102 -72z
m546 47 c13 -27 6 -49 -29 -88 -20 -22 -20 -22 5 -55 23 -31 31 -54 28 -86 -2
-19 -47 -33 -76 -22 -26 10 -145 119 -145 133 0 5 31 40 69 78 61 63 72 70
102 67 24 -2 37 -10 46 -27z m-323 -134 c-8 -22 -16 -21 -42 1 -20 17 -20 20
-4 35 15 16 18 16 35 -1 10 -11 15 -25 11 -35z"/>
</g>
</svg>
