<svg width="10" height="13" viewBox="0 0 10 13" fill="none" xmlns="http://www.w3.org/2000/svg">
<path d="M5.51385 12.7377C9.29766 7.38946 10 6.84056 10 4.875C10 2.1826 7.76143 0 5 0C2.23857 0 2.38419e-07 2.1826 2.38419e-07 4.875C2.38419e-07 6.84056 0.702344 7.38946 4.48615 12.7377C4.73445 13.0874 5.26557 13.0874 5.51385 12.7377ZM5 6.90625C3.8494 6.90625 2.91667 5.99683 2.91667 4.875C2.91667 3.75317 3.8494 2.84375 5 2.84375C6.1506 2.84375 7.08333 3.75317 7.08333 4.875C7.08333 5.99683 6.1506 6.90625 5 6.90625Z" fill="white"/>
</svg>
